<mxfile host="65bd71144e">
    <diagram id="3D8qayv-RzPZKjCu5fc2" name="Page-1">
        <mxGraphModel dx="1440" dy="1060" grid="1" gridSize="10" guides="1" tooltips="1" connect="1" arrows="1" fold="1" page="1" pageScale="1" pageWidth="1100" pageHeight="850" background="#170B0B" math="0" shadow="0">
            <root>
                <mxCell id="0"/>
                <mxCell id="1" parent="0"/>
                <mxCell id="4" value="&lt;font style=&quot;font-size: 40px;&quot;&gt;Header&lt;/font&gt;" style="rounded=0;whiteSpace=wrap;html=1;" vertex="1" parent="1">
                    <mxGeometry width="1100" height="80" as="geometry"/>
                </mxCell>
                <mxCell id="5" value="&lt;font style=&quot;font-size: 40px;&quot;&gt;Footer&lt;/font&gt;" style="rounded=0;whiteSpace=wrap;html=1;" vertex="1" parent="1">
                    <mxGeometry y="770" width="1100" height="80" as="geometry"/>
                </mxCell>
                <mxCell id="7" value="Works" style="swimlane;horizontal=0;whiteSpace=wrap;html=1;strokeWidth=1;fontSize=40;" vertex="1" parent="1">
                    <mxGeometry x="70" y="500" width="1010" height="200" as="geometry"/>
                </mxCell>
                <mxCell id="9" value="Vertical Container" style="swimlane;whiteSpace=wrap;html=1;strokeWidth=1;fontSize=40;" vertex="1" parent="1">
                    <mxGeometry x="80" y="180" width="200" height="200" as="geometry"/>
                </mxCell>
            </root>
        </mxGraphModel>
    </diagram>
</mxfile>